<svg xmlns="http://www.w3.org/2000/svg" viewBox="0 0 64 64" role="img" aria-label="Samoyed dog icon">
  <defs>
    <linearGradient id="bg" x1="0" y1="0" x2="1" y2="1">
      <stop offset="0%" stop-color="#f8f6f2" />
      <stop offset="100%" stop-color="#ece6dc" />
    </linearGradient>
  </defs>

  <rect x="1" y="1" width="62" height="62" rx="14" fill="url(#bg)" stroke="#d7cec1" stroke-width="2" />

  <!-- Ears -->
  <path d="M19 23c0-6 4-10 9-11-2 4-1 9 1 13-5 1-8 0-10-2z" fill="#fff" stroke="#d7cec1" stroke-width="1.2" />
  <path d="M45 23c0-6-4-10-9-11 2 4 1 9-1 13 5 1 8 0 10-2z" fill="#fff" stroke="#d7cec1" stroke-width="1.2" />

  <!-- Fluffy head -->
  <circle cx="32" cy="34" r="17" fill="#fff" stroke="#d7cec1" stroke-width="1.5" />
  <circle cx="21.5" cy="34.5" r="4.8" fill="#fff" stroke="#d7cec1" stroke-width="1" />
  <circle cx="42.5" cy="34.5" r="4.8" fill="#fff" stroke="#d7cec1" stroke-width="1" />
  <circle cx="32" cy="47" r="4.3" fill="#fff" stroke="#d7cec1" stroke-width="1" />

  <!-- Face -->
  <ellipse cx="32" cy="36.5" rx="8.8" ry="7.6" fill="#fdfbf8" />
  <circle cx="27.8" cy="33.3" r="1.55" fill="#1f1f1f" />
  <circle cx="36.2" cy="33.3" r="1.55" fill="#1f1f1f" />
  <ellipse cx="32" cy="37.1" rx="2.1" ry="1.5" fill="#1f1f1f" />
  <path d="M29.2 39.6c.9 1 1.8 1.4 2.8 1.4s2-.4 2.8-1.4" fill="none" stroke="#1f1f1f" stroke-width="1.2" stroke-linecap="round" />

  <!-- Tongue -->
  <path d="M31 40.7c0 1.5.4 2.7 1 2.7s1-.8 1-2.7" fill="#f0a7b4" />
</svg>
